HIERARCHY
ROOT Hips
{
	OFFSET 0.000000 0.000000 0.000000 
	CHANNELS 6 Xposition Yposition Zposition Zrotation Yrotation Xrotation
	JOINT LeftUpLeg
	{
		OFFSET 1.363060 -1.794630 0.839290 
		CHANNELS 3 Zrotation Yrotation Xrotation
		JOINT LeftLeg
		{
			OFFSET 2.448110 -6.726130 0.000000 
			CHANNELS 3 Zrotation Yrotation Xrotation
			JOINT LeftFoot
			{
				OFFSET 2.562200 -7.039590 0.000000 
				CHANNELS 3 Zrotation Yrotation Xrotation
				JOINT LeftToeBase
				{
					OFFSET 0.157640 -0.433110 2.322550 
					CHANNELS 3 Zrotation Yrotation Xrotation
					End Site
					{
						OFFSET 0.000000 0.000000 0.000000 
					}
				}
			}
		}
	}
	JOINT RightUpLeg
	{
		OFFSET -1.305520 -1.794630 0.839290 
		CHANNELS 3 Zrotation Yrotation Xrotation
		JOINT RightLeg
		{
			OFFSET -2.542530 -6.985550 0.000000 
			CHANNELS 3 Zrotation Yrotation Xrotation
			JOINT RightFoot
			{
				OFFSET -2.568260 -7.056230 0.000000 
				CHANNELS 3 Zrotation Yrotation Xrotation
				JOINT RightToeBase
				{
					OFFSET -0.164730 -0.452590 2.363150 
					CHANNELS 3 Zrotation Yrotation Xrotation
					End Site
					{
						OFFSET 0.000000 0.000000 0.000000 
					}
				}
			}
		}
	}
	JOINT Spine
	{
		OFFSET 0.028270 2.035590 -0.193380 
		CHANNELS 3 Zrotation Yrotation Xrotation
		JOINT Spine1
		{
			OFFSET 0.056720 2.048850 -0.042750 
			CHANNELS 3 Zrotation Yrotation Xrotation
			JOINT Neck1
			{
				OFFSET -0.054170 1.746240 0.172020 
				CHANNELS 3 Zrotation Yrotation Xrotation
				JOINT Head
				{
					OFFSET 0.104070 1.761360 -0.123970 
					CHANNELS 3 Zrotation Yrotation Xrotation
					End Site
					{
						OFFSET 0.000000 0.000000 0.000000 
					}
				}
			}
			JOINT LeftArm
			{
				OFFSET 3.362410 1.200890 -0.311210 
				CHANNELS 3 Zrotation Yrotation Xrotation
				JOINT LeftForeArm
				{
					OFFSET 4.983000 -0.000000 -0.000000 
					CHANNELS 3 Zrotation Yrotation Xrotation
					JOINT LeftHand
					{
						OFFSET 3.483560 -0.000000 -0.000000 
						CHANNELS 3 Zrotation Yrotation Xrotation
						JOINT LeftHandIndex1
						{
							OFFSET 0.715260 -0.000000 -0.000000 
							CHANNELS 3 Zrotation Yrotation Xrotation
							End Site
							{
								OFFSET 0.000000 0.000000 0.000000 
							}
						}
					}
				}
			}
			JOINT RightArm
			{
				OFFSET -3.136600 1.374050 -0.404650 
				CHANNELS 3 Zrotation Yrotation Xrotation
				JOINT RightForeArm
				{
					OFFSET -5.241900 -0.000000 -0.000000 
					CHANNELS 3 Zrotation Yrotation Xrotation
					JOINT RightHand
					{
						OFFSET -3.444170 -0.000000 -0.000000 
						CHANNELS 3 Zrotation Yrotation Xrotation
						JOINT RightHandIndex1
						{
							OFFSET -0.622530 -0.000000 -0.000000 
							CHANNELS 3 Zrotation Yrotation Xrotation
							End Site
							{
								OFFSET 0.000000 0.000000 0.000000 
							}
						}
					}
				}
			}
		}
	}
}
MOTION
Frames: 18
Frame Time: 0.041667
1.524418 17.810567 -28.416094 -1.678097 5.212698 -1.017592 -17.422744 0.923519 -7.380342 0.027356 8.392427 21.568990 -2.540606 11.597860 -0.306720 0.075800 -1.775600 -4.885800 5.037698 -1.852561 -24.689984 -14.449236 -19.597509 71.750205 1.105920 -11.707541 18.216642 -0.024900 1.019700 -2.803000 5.023352 -6.872533 -0.698656 10.511101 -3.586521 -2.166353 -7.105884 9.560966 29.084756 -6.174200 4.411100 19.772000 -97.507493 3.242765 6.508475 17.676469 -27.722257 -4.111062 0.232604 0.346477 -4.332290 -7.125000 0.000000 0.000000 71.568440 -9.237557 30.345240 -23.203416 33.653907 -6.710213 0.106440 -0.422392 -8.603357 7.125000 0.000000 0.000000 
1.527613 17.809369 -28.416693 -1.712665 5.179087 -0.989028 -17.406650 0.886555 -7.434569 0.036614 8.412994 21.628068 -2.573446 11.700859 -0.369738 0.073100 -1.744200 -4.799200 5.092673 -1.806083 -24.797746 -14.458054 -19.598754 71.787369 1.091245 -11.644380 18.238270 -0.021800 0.952400 -2.617800 5.113915 -6.836437 -0.615415 10.621768 -3.580928 -2.051028 -6.905961 9.930647 28.453504 -5.910900 4.516500 19.440200 -97.717546 2.907823 6.342806 17.536761 -27.550503 -4.052897 0.234912 0.342113 -4.062534 -7.125000 0.000000 0.000000 71.371922 -8.868287 30.304756 -23.184036 33.631178 -6.701196 0.105563 -0.421966 -8.640742 7.125000 0.000000 0.000000 
1.530908 17.808371 -28.417991 -1.730586 5.167982 -0.939009 -17.405353 0.827715 -7.502060 0.044426 8.431660 21.682582 -2.602003 11.789862 -0.423014 0.070400 -1.711600 -4.709100 5.127575 -1.784809 -24.935174 -14.476337 -19.601368 71.848970 1.078357 -11.588400 18.256666 -0.020800 0.931800 -2.561300 5.238275 -6.831467 -0.519160 10.801047 -3.594798 -1.903105 -6.677561 10.382413 27.751608 -5.590900 4.638800 19.071500 -98.021136 2.498747 6.082248 17.390798 -27.372008 -3.992318 0.236627 0.334754 -3.754366 -7.125000 0.000000 0.000000 71.070450 -8.400824 30.317299 -23.150915 33.592092 -6.684688 0.104531 -0.421069 -8.695037 7.125000 0.000000 0.000000 
1.534602 17.807272 -28.419688 -1.724485 5.168229 -0.882841 -17.430407 0.758675 -7.567128 0.051065 8.448565 21.731364 -2.627780 11.871180 -0.467572 0.068000 -1.682000 -4.627600 5.134372 -1.785297 -25.082282 -14.498848 -19.604230 71.917418 1.067349 -11.550060 18.286666 -0.022700 0.973400 -2.675600 5.356088 -6.813719 -0.412163 10.988007 -3.604622 -1.740238 -6.342718 10.763449 27.054738 -5.211100 4.732400 18.674300 -98.311068 2.053498 5.848138 17.233250 -27.176511 -3.926535 0.237865 0.324870 -3.421699 -7.125000 0.000000 0.000000 70.780748 -7.919176 30.280524 -23.114089 33.550047 -6.666836 0.103909 -0.420069 -8.743089 7.125000 0.000000 0.000000 
1.538596 17.806174 -28.421186 -1.718140 5.169152 -0.830466 -17.456132 0.685888 -7.622798 0.056468 8.462542 21.771487 -2.652499 11.949969 -0.505346 0.065600 -1.653000 -4.547700 5.140171 -1.794630 -25.228895 -14.524852 -19.607910 71.996128 1.059376 -11.517045 18.300709 -0.025600 1.033200 -2.840000 5.463302 -6.853115 -0.314672 11.123527 -3.645220 -1.564652 -6.196895 11.112736 26.611351 -4.961600 4.800100 18.512300 -98.615003 1.652739 5.518280 17.093975 -27.003760 -3.868868 0.238365 0.315832 -3.134547 -7.125000 0.000000 0.000000 70.464351 -7.422494 30.360839 -23.071353 33.501213 -6.645235 0.103748 -0.418981 -8.792492 7.125000 0.000000 0.000000 
1.542989 17.804976 -28.422384 -1.693615 5.170229 -0.784568 -17.504027 0.618944 -7.665544 0.060303 8.473049 21.801652 -2.673650 12.018153 -0.539601 0.063700 -1.628500 -4.480100 5.121193 -1.819151 -25.368886 -14.553903 -19.612416 72.083312 1.053692 -11.483389 18.295612 -0.029600 1.110800 -3.053700 5.528475 -6.872792 -0.260294 11.220781 -3.668402 -1.449373 -6.032576 11.265862 26.288460 -4.763200 4.810900 18.364900 -98.809414 1.395756 5.303139 16.962706 -26.837257 -3.814331 0.238756 0.308992 -2.923921 -7.125000 0.000000 0.000000 70.260246 -7.096428 30.406122 -23.046222 33.472521 -6.632871 0.103883 -0.418584 -8.821030 7.125000 0.000000 0.000000 
1.548480 17.803778 -28.421485 -1.679888 5.114968 -0.767371 -17.547228 0.593754 -7.683699 0.064277 8.482351 21.826879 -2.698515 12.099081 -0.587774 0.062200 -1.609700 -4.428200 5.111859 -1.808445 -25.464260 -14.584737 -19.618396 72.172386 1.057598 -11.487011 18.272006 -0.031400 1.144100 -3.145400 5.544431 -6.842773 -0.233572 11.240520 -3.660842 -1.384341 -5.823144 11.204070 26.127663 -4.608400 4.760100 18.259500 -98.871072 1.286940 5.228805 16.854586 -26.696996 -3.769206 0.238717 0.306197 -2.846201 -7.125000 0.000000 0.000000 70.199106 -6.942509 30.392918 -23.035268 33.461401 -6.628166 0.104159 -0.418860 -8.821925 7.125000 0.000000 0.000000 
1.553872 17.802580 -28.421186 -1.659610 5.080616 -0.753341 -17.596010 0.567691 -7.696113 0.067049 8.489015 21.845518 -2.715620 12.154945 -0.625386 0.061200 -1.596100 -4.390700 5.092108 -1.828633 -25.557485 -14.617649 -19.624807 72.265276 1.066645 -11.505543 18.229687 -0.032800 1.169700 -3.215900 5.524892 -6.807738 -0.245019 11.218981 -3.642642 -1.378453 -5.637782 11.053531 25.996992 -4.513700 4.697200 18.140900 -98.836923 1.299671 5.245076 16.763992 -26.576750 -3.731158 0.238329 0.306493 -2.846154 -7.125000 0.000000 0.000000 70.242762 -6.917303 30.344771 -23.028236 33.455755 -6.625404 0.103933 -0.419577 -8.800763 7.125000 0.000000 0.000000 
1.559163 17.801282 -28.420487 -1.647610 5.040968 -0.740822 -17.631899 0.557445 -7.711370 0.069194 8.494088 21.860936 -2.726931 12.190286 -0.664886 0.060800 -1.590500 -4.375300 5.082991 -1.851656 -25.642605 -14.653434 -19.631841 72.358077 1.086140 -11.576777 18.186761 -0.032300 1.160700 -3.191000 5.517625 -6.782105 -0.272563 11.229324 -3.626742 -1.391544 -5.480308 10.918244 25.866812 -4.438600 4.645800 18.013900 -98.820917 1.353734 5.258786 16.685629 -26.473861 -3.698857 0.238169 0.309384 -2.893351 -7.125000 0.000000 0.000000 70.257289 -6.933231 30.347786 -23.035100 33.463595 -6.629323 0.103372 -0.420312 -8.797180 7.125000 0.000000 0.000000 
1.564355 17.799984 -28.419389 -1.640903 4.995007 -0.747620 -17.660001 0.571912 -7.711825 0.071255 8.498556 21.874229 -2.732275 12.206104 -0.706187 0.060500 -1.587600 -4.367100 5.081576 -1.880509 -25.697583 -14.689841 -19.639593 72.447982 1.111277 -11.681929 18.151457 -0.033000 1.172700 -3.224100 5.507236 -6.753858 -0.279201 11.215921 -3.612551 -1.386783 -5.323960 10.812371 25.759046 -4.357500 4.603300 17.922100 -98.804475 1.368552 5.276430 16.594811 -26.354867 -3.662331 0.240474 0.310553 -2.895323 -7.125000 0.000000 0.000000 70.267446 -6.915098 30.343574 -23.040612 33.470328 -6.632586 0.102359 -0.421022 -8.789942 7.125000 0.000000 0.000000 
1.569447 17.798486 -28.418191 -1.621862 4.970621 -0.750973 -17.698537 0.590141 -7.713394 0.072585 8.501656 21.885065 -2.728965 12.192970 -0.742777 0.060700 -1.589200 -4.371500 5.064267 -1.940013 -25.751357 -14.725873 -19.646877 72.534003 1.134523 -11.789257 18.133549 -0.034200 1.193000 -3.280100 5.497090 -6.736210 -0.296021 11.216123 -3.601656 -1.396837 -5.185221 10.705836 25.637132 -4.288400 4.561400 17.818900 -98.793697 1.401933 5.288419 16.509924 -26.243138 -3.628307 0.242541 0.311326 -2.875999 -7.125000 0.000000 0.000000 70.270492 -6.914118 30.348390 -23.050946 33.481690 -6.638390 0.101536 -0.421761 -8.792444 7.125000 0.000000 0.000000 
1.574539 17.796889 -28.416793 -1.591642 4.957793 -0.754238 -17.745181 0.622183 -7.715619 0.073209 8.502892 21.892307 -2.717884 12.154044 -0.774721 0.061100 -1.595100 -4.388000 5.034678 -2.018985 -25.802517 -14.759488 -19.653452 72.612629 1.152731 -11.887675 18.139565 -0.035300 1.213300 -3.336000 5.517416 -6.810155 -0.326339 11.247842 -3.635867 -1.396275 -5.275308 10.873329 25.452313 -4.317200 4.631500 17.750800 -98.904193 1.459933 5.084175 16.437741 -26.151249 -3.600082 0.244344 0.310768 -2.791073 -7.125000 0.000000 0.000000 70.126400 -6.857432 30.570800 -23.061507 33.489809 -6.642793 0.101159 -0.421884 -8.821845 7.125000 0.000000 0.000000 
1.579631 17.795391 -28.415095 -1.570584 4.944149 -0.756079 -17.780183 0.667925 -7.720658 0.073432 8.503039 21.896576 -2.701858 12.098819 -0.798220 0.061400 -1.598300 -4.396700 5.014398 -2.103282 -25.851356 -14.788186 -19.659143 72.680730 1.164644 -11.961636 18.157675 -0.035700 1.218800 -3.351000 5.521945 -6.844830 -0.341871 11.243248 -3.651559 -1.391421 -5.290724 10.942735 25.274134 -4.313200 4.658300 17.672200 -98.960568 1.486583 4.966348 16.359032 -26.048657 -3.568984 0.246546 0.309094 -2.674878 -7.125000 0.000000 0.000000 70.043242 -6.805942 30.695603 -23.076735 33.504574 -6.650354 0.101542 -0.422174 -8.847005 7.125000 0.000000 0.000000 
1.584624 17.793893 -28.413598 -1.546498 4.939507 -0.753417 -17.816019 0.725587 -7.735551 0.073912 8.503598 21.903691 -2.678269 12.017954 -0.817997 0.061700 -1.602500 -4.408400 4.988166 -2.201663 -25.905890 -14.811602 -19.663507 72.737780 1.168000 -12.000793 18.187969 -0.032700 1.166500 -3.207100 5.525084 -6.877301 -0.360654 11.242293 -3.665128 -1.393745 -5.305372 10.997133 25.069319 -4.311300 4.679100 17.572700 -99.009672 1.519174 4.864774 16.281619 -25.946994 -3.538247 0.248518 0.306773 -2.537242 -7.125000 0.000000 0.000000 69.965978 -6.765611 30.811886 -23.097400 33.524932 -6.660800 0.102468 -0.422406 -8.874350 7.125000 0.000000 0.000000 
1.590614 17.792296 -28.410702 -1.536009 4.884617 -0.761378 -17.840760 0.830499 -7.755337 0.076219 8.506891 21.919840 -2.652301 11.927300 -0.857303 0.062100 -1.607700 -4.422800 4.971322 -2.260063 -25.935726 -14.829133 -19.667188 72.779328 1.170302 -12.036996 18.223152 -0.028300 1.086200 -2.986100 5.480719 -6.833813 -0.400138 11.168928 -3.633645 -1.448163 -5.237314 10.827026 24.848632 -4.315800 4.624600 17.391400 -98.920191 1.656641 4.926940 16.216638 -25.857110 -3.511592 0.249637 0.306498 -2.452788 -7.125000 0.000000 0.000000 70.047371 -6.880427 30.800520 -23.129585 33.560455 -6.677814 0.103494 -0.423092 -8.866460 7.125000 0.000000 0.000000 
1.596305 17.790998 -28.409205 -1.536792 4.851317 -0.750831 -17.847196 0.925098 -7.801846 0.079490 8.512798 21.945646 -2.617985 11.807310 -0.885111 0.062700 -1.615200 -4.443300 4.964968 -2.336843 -25.992479 -14.842583 -19.668912 72.807358 1.171307 -12.075051 18.271431 -0.023500 0.990200 -2.721800 5.431953 -6.755179 -0.431612 11.100709 -3.585495 -1.501820 -5.053805 10.525432 24.624703 -4.265900 4.512400 17.175100 -98.788900 1.757738 5.072587 16.153440 -25.768151 -3.485105 0.249724 0.306501 -2.359402 -7.125000 0.000000 0.000000 70.183633 -7.000831 30.680836 -23.165713 33.601573 -6.697483 0.104402 -0.423910 -8.857328 7.125000 0.000000 0.000000 
1.601897 17.789700 -28.407907 -1.555463 4.810371 -0.736965 -17.829954 1.034479 -7.864247 0.083947 8.521392 21.979880 -2.576370 11.661934 -0.910512 0.063900 -1.630900 -4.486500 4.977776 -2.404781 -26.049473 -14.850663 -19.669219 72.819173 1.173082 -12.119130 18.324073 -0.021000 0.934800 -2.569300 5.376435 -6.602644 -0.418322 11.021918 -3.507044 -1.516288 -4.691630 10.047723 24.435358 -4.121200 4.315800 16.956500 -98.600641 1.736216 5.357000 16.073848 -25.656394 -3.451908 0.249660 0.307244 -2.259405 -7.125000 0.000000 0.000000 70.388053 -7.079034 30.384796 -23.207768 33.651765 -6.721712 0.105469 -0.424875 -8.851755 7.125000 0.000000 0.000000 
1.607288 17.788602 -28.406808 -1.592746 4.766758 -0.720568 -17.786244 1.154045 -7.940381 0.089381 8.531765 22.021458 -2.527232 11.489788 -0.930442 0.065400 -1.649800 -4.538800 5.011217 -2.465204 -26.106589 -14.853365 -19.668364 72.816071 1.175015 -12.164954 18.379311 -0.020400 0.922300 -2.535100 5.335382 -6.465600 -0.395334 10.951182 -3.439254 -1.507273 -4.362636 9.616317 24.259041 -3.985800 4.134900 16.767300 -98.444690 1.686300 5.590968 15.997488 -25.550185 -3.420739 0.250000 0.308118 -2.157637 -7.125000 0.000000 0.000000 70.553028 -7.121701 30.132156 -23.254347 33.706204 -6.748117 0.106137 -0.425778 -8.851059 7.125000 0.000000 0.000000 
